<svg width="45" height="36" viewBox="0 0 45 36" fill="none" xmlns="http://www.w3.org/2000/svg">
<path d="M38.2706 5.93944C36.5161 5.8106 34.5309 5.42937 32.3699 4.80652C29.7737 4.05803 27.2536 4.17358 24.8794 5.14972C24.5446 5.2874 24.3899 5.65861 24.5338 5.97891C24.6777 6.29905 25.0654 6.44733 25.4007 6.30957C27.4816 5.45394 29.6984 5.35481 31.9891 6.01519C34.241 6.66437 36.3205 7.06227 38.1696 7.19809C38.1867 7.19944 38.2039 7.19995 38.2208 7.19995C38.5623 7.19995 38.8514 6.94823 38.878 6.61708C38.9059 6.26951 38.6339 5.96612 38.2706 5.93944Z" fill="white" stroke="#E85EC0" stroke-width="0.4"/>
<path d="M38.2705 9.53954C36.5165 9.41078 34.5313 9.02964 32.3699 8.40662C29.7737 7.65813 27.2536 7.77368 24.8794 8.74981C24.5446 8.88749 24.3899 9.25871 24.5338 9.57901C24.6777 9.89923 25.0654 10.0474 25.4007 9.90966C27.4816 9.05404 29.6984 8.9549 31.9891 9.61528C34.2416 10.2646 36.3209 10.6625 38.1696 10.7982C38.1868 10.7995 38.2039 10.8 38.2208 10.8C38.5623 10.8 38.8514 10.5483 38.878 10.2171C38.9059 9.86952 38.6339 9.56622 38.2705 9.53954Z" fill="white" stroke="#E85EC0" stroke-width="0.4"/>
<path d="M38.2706 23.2195C36.5161 23.0907 34.5308 22.7094 32.3699 22.0865C29.7739 21.338 27.2539 21.4537 24.8794 22.4298C24.5446 22.5675 24.3899 22.9387 24.5338 23.259C24.6777 23.5791 25.0654 23.7274 25.4007 23.5896C27.4817 22.734 29.6985 22.635 31.9891 23.2952C34.2409 23.9443 36.3204 24.3423 38.1696 24.4781C38.1867 24.4795 38.2039 24.48 38.2208 24.48C38.5623 24.48 38.8514 24.2283 38.878 23.8971C38.9059 23.5496 38.6339 23.2462 38.2706 23.2195Z" fill="white" stroke="#E85EC0" stroke-width="0.4"/>
<path d="M38.2706 25.3795C36.5161 25.2506 34.5309 24.8694 32.3699 24.2466C29.7737 23.4981 27.2536 23.6136 24.8794 24.5898C24.5446 24.7274 24.3899 25.0987 24.5338 25.419C24.6777 25.7392 25.0654 25.8874 25.4007 25.7496C27.4816 24.894 29.6984 24.7948 31.9891 25.4552C34.241 26.1044 36.3205 26.5023 38.1696 26.6382C38.1867 26.6395 38.2039 26.64 38.2208 26.64C38.5623 26.64 38.8514 26.3883 38.878 26.0571C38.9059 25.7096 38.6339 25.4062 38.2706 25.3795Z" fill="white" stroke="#E85EC0" stroke-width="0.4"/>
<path d="M38.2706 11.6995C36.5161 11.5706 34.5308 11.1894 32.3699 10.5665C29.7739 9.81809 27.2539 9.93355 24.8794 10.9098C24.5446 11.0474 24.3899 11.4186 24.5338 11.7389C24.6777 12.0591 25.0654 12.2073 25.4007 12.0696C27.4817 11.214 29.6985 11.1149 31.9891 11.7751C34.2409 12.4243 36.3204 12.8223 38.1696 12.9581C38.1867 12.9595 38.2039 12.96 38.2208 12.96C38.5623 12.96 38.8514 12.7082 38.878 12.3771C38.9059 12.0295 38.6339 11.7261 38.2706 11.6995Z" fill="white" stroke="#E85EC0" stroke-width="0.4"/>
<path d="M38.2705 17.4594C36.5165 17.3307 34.5313 16.9496 32.3699 16.3265C29.7739 15.5781 27.2537 15.6936 24.8794 16.6697C24.5446 16.8074 24.3899 17.1786 24.5338 17.4989C24.6777 17.8192 25.0654 17.9674 25.4007 17.8296C27.4815 16.974 29.6984 16.8749 31.9891 17.5352C34.2416 18.1845 36.3209 18.5825 38.1696 18.7182C38.1868 18.7195 38.2039 18.72 38.2208 18.72C38.5623 18.72 38.8514 18.4683 38.878 18.137C38.9059 17.7894 38.6339 17.4861 38.2705 17.4594Z" fill="white" stroke="#E85EC0" stroke-width="0.4"/>
<path d="M38.2706 14.5795C36.5161 14.4506 34.5309 14.0694 32.3699 13.4465C29.774 12.698 27.2537 12.8136 24.8794 13.7897C24.5446 13.9274 24.3899 14.2986 24.5338 14.6189C24.6777 14.9391 25.0654 15.0873 25.4007 14.9496C27.4819 14.094 29.6985 13.9949 31.9891 14.6552C34.241 15.3044 36.3205 15.7023 38.1696 15.8381C38.1867 15.8395 38.2039 15.84 38.2208 15.84C38.5623 15.84 38.8514 15.5882 38.878 15.2571C38.9059 14.9095 38.6339 14.6061 38.2706 14.5795Z" fill="white" stroke="#E85EC0" stroke-width="0.4"/>
<path d="M38.2705 20.3394C36.5162 20.2107 34.5309 19.8295 32.3699 19.2065C29.7739 18.4581 27.2539 18.5736 24.8794 19.5498C24.5446 19.6875 24.3899 20.0587 24.5338 20.379C24.6777 20.6991 25.0654 20.8473 25.4007 20.7097C27.4817 19.854 29.6985 19.7551 31.9891 20.4152C34.2412 21.0645 36.3206 21.4625 38.1696 21.5982C38.1868 21.5995 38.2039 21.6 38.2208 21.6C38.5623 21.6 38.8514 21.3483 38.878 21.017C38.9059 20.6694 38.6339 20.3661 38.2705 20.3394Z" fill="white" stroke="#E85EC0" stroke-width="0.4"/>
<path d="M6.41915 7.19995C6.43604 7.19995 6.4532 7.19936 6.47036 7.19809C8.31954 7.06235 10.3989 6.66437 12.6509 6.01518C14.9416 5.35489 17.1583 5.45385 19.2393 6.30956C19.5741 6.44724 19.9623 6.29913 20.1062 5.97891C20.2501 5.65861 20.0954 5.28739 19.7605 5.14971C17.3863 4.17349 14.8662 4.05811 12.2701 4.80652C10.109 5.42936 8.12377 5.8106 6.36935 5.93944C6.00597 5.96603 5.73401 6.26951 5.76199 6.61707C5.78847 6.94823 6.07768 7.19995 6.41915 7.19995Z" fill="white" stroke="#E85EC0" stroke-width="0.4"/>
<path d="M6.41915 10.8C6.43604 10.8 6.4532 10.7995 6.47027 10.7982C8.31901 10.6626 10.3985 10.2645 12.6509 9.61527C14.9416 8.95496 17.1583 9.05385 19.2393 9.90965C19.5741 10.0472 19.9623 9.89921 20.1062 9.57899C20.2501 9.25869 20.0954 8.88747 19.7605 8.74978C17.3863 7.77355 14.8662 7.65825 12.2701 8.40659C10.1086 9.02961 8.12333 9.41076 6.36944 9.53952C6.00597 9.56612 5.73401 9.86951 5.76199 10.2171C5.78847 10.5483 6.07768 10.8 6.41915 10.8Z" fill="white" stroke="#E85EC0" stroke-width="0.4"/>
<path d="M6.41915 24.48C6.43604 24.48 6.4532 24.4794 6.47036 24.4781C8.31963 24.3424 10.399 23.9443 12.6509 23.2951C14.9416 22.6347 17.1583 22.734 19.2393 23.5896C19.5741 23.7272 19.9623 23.5792 20.1062 23.2589C20.2501 22.9386 20.0954 22.5674 19.7605 22.4298C17.3863 21.4535 14.8662 21.3382 12.2701 22.0865C10.1091 22.7094 8.12386 23.0906 6.36935 23.2195C6.00597 23.2461 5.73401 23.5495 5.76199 23.8971C5.78847 24.2283 6.07768 24.48 6.41915 24.48Z" fill="white" stroke="#E85EC0" stroke-width="0.4"/>
<path d="M6.41915 26.64C6.43604 26.64 6.4532 26.6394 6.47036 26.6382C8.31954 26.5024 10.3989 26.1044 12.6509 25.4552C14.9416 24.7949 17.1583 24.8938 19.2393 25.7496C19.5741 25.8871 19.9623 25.7392 20.1062 25.419C20.2501 25.0987 20.0954 24.7275 19.7605 24.5898C17.3863 23.6136 14.8662 23.4982 12.2701 24.2466C10.109 24.8694 8.12377 25.2507 6.36935 25.3795C6.00597 25.4061 5.73401 25.7096 5.76199 26.0571C5.78847 26.3883 6.07768 26.64 6.41915 26.64Z" fill="white" stroke="#E85EC0" stroke-width="0.4"/>
<path d="M6.41915 12.96C6.43604 12.96 6.4532 12.9594 6.47036 12.9581C8.31963 12.8224 10.399 12.4243 12.6509 11.7751C14.9416 11.1147 17.1583 11.214 19.2393 12.0696C19.5741 12.2072 19.9623 12.0591 20.1062 11.7389C20.2501 11.4186 20.0954 11.0474 19.7605 10.9097C17.3863 9.93351 14.8662 9.81813 12.2701 10.5665C10.1091 11.1894 8.12386 11.5706 6.36935 11.6995C6.00597 11.7261 5.73401 12.0295 5.76199 12.3771C5.78847 12.7082 6.07768 12.96 6.41915 12.96Z" fill="white" stroke="#E85EC0" stroke-width="0.4"/>
<path d="M6.41915 18.72C6.43604 18.72 6.4532 18.7194 6.47027 18.7182C8.31901 18.5825 10.3985 18.1845 12.6509 17.5352C14.9416 16.8749 17.1583 16.9738 19.2393 17.8296C19.5741 17.9672 19.9623 17.8191 20.1062 17.4989C20.2501 17.1786 20.0954 16.8074 19.7605 16.6697C17.3864 15.6936 14.8663 15.5781 12.2701 16.3265C10.1086 16.9495 8.12333 17.3307 6.36944 17.4594C6.00597 17.486 5.73401 17.7894 5.76199 18.137C5.78847 18.4682 6.07768 18.72 6.41915 18.72Z" fill="white" stroke="#E85EC0" stroke-width="0.4"/>
<path d="M6.41915 15.84C6.43604 15.84 6.4532 15.8394 6.47036 15.8381C8.31954 15.7024 10.3989 15.3044 12.6509 14.6552C14.9415 13.995 17.1582 14.0938 19.2393 14.9496C19.5741 15.0871 19.9623 14.9392 20.1062 14.619C20.2501 14.2987 20.0954 13.9275 19.7605 13.7898C17.3861 12.8136 14.8662 12.698 12.2701 13.4466C10.109 14.0694 8.12377 14.4506 6.36935 14.5795C6.00597 14.6061 5.73401 14.9095 5.76199 15.2571C5.78847 15.5883 6.07768 15.84 6.41915 15.84Z" fill="white" stroke="#E85EC0" stroke-width="0.4"/>
<path d="M6.41915 21.6C6.43604 21.6 6.4532 21.5994 6.47027 21.5982C8.31936 21.4625 10.3987 21.0645 12.6509 20.4152C14.9416 19.7547 17.1583 19.854 19.2393 20.7097C19.5741 20.8473 19.9623 20.6992 20.1062 20.379C20.2501 20.0587 20.0954 19.6875 19.7605 19.5498C17.3863 18.5736 14.8662 18.4581 12.2701 19.2065C10.109 19.8295 8.1236 20.2107 6.36944 20.3394C6.00597 20.366 5.73401 20.6694 5.76199 21.017C5.78847 21.3483 6.07768 21.6 6.41915 21.6Z" fill="white" stroke="#E85EC0" stroke-width="0.4"/>
</svg>
